<?xml version="1.0" encoding="utf-8"?>
<!-- Generator: Adobe Illustrator 20.1.0, SVG Export Plug-In . SVG Version: 6.00 Build 0)  -->
<svg version="1.1" id="Layer_1" xmlns="http://www.w3.org/2000/svg" xmlns:xlink="http://www.w3.org/1999/xlink" x="0px" y="0px"
	 viewBox="0 0 100 125" style="enable-background:new 0 0 100 125;" xml:space="preserve">
<g>
	<path d="M69.3,91.9L55.4,81.2V67.9c1.4-1.2,2.3-3,2.3-5V30.3c0-3.7-3-6.8-6.8-6.8s-6.8,3-6.8,6.8v7.5l-16.4,15
		c-1.7,1.5-1.8,4.2-0.3,5.8c0.8,0.9,1.9,1.3,3.1,1.3c1,0,2-0.4,2.8-1.1L44.1,49v13.8c0,0.3,0,0.6,0.1,0.9L32.6,74
		c-0.6,0.6-1.1,1.3-1.3,2.1l-4.5,18.4c-0.5,2.2,0.8,4.5,3,5c0.3,0.1,0.7,0.1,1,0.1c1.9,0,3.5-1.3,4-3.1l4.2-17.2l7.3-6.5v10.5
		c0,1.4,0.6,2.7,1.7,3.6l15.7,12.1c0.8,0.6,1.8,0.9,2.8,0.9c1.3,0,2.7-0.6,3.6-1.7C71.6,96.3,71.3,93.4,69.3,91.9z"/>
	<path d="M66.8,23.5c-3.7,0-6.8,3-6.8,6.8v17.3c0,3.7,3,6.8,6.8,6.8c3.7,0,6.8-3,6.8-6.8V30.3C73.6,26.6,70.5,23.5,66.8,23.5z"/>
	<circle cx="48.7" cy="9.8" r="9.8"/>
</g>
</svg>
